<?xml version="1.0" encoding="utf-8"?>
<!-- Generator: Adobe Illustrator 25.4.1, SVG Export Plug-In . SVG Version: 6.00 Build 0)  -->
<svg version="1.1" id="Layer_1" xmlns="http://www.w3.org/2000/svg" xmlns:xlink="http://www.w3.org/1999/xlink" x="0px" y="0px"
	 viewBox="0 0 595.3 595.3" style="enable-background:new 0 0 595.3 595.3;" xml:space="preserve">
<style type="text/css">
	.st0{fill-rule:evenodd;clip-rule:evenodd;fill:#FFFFFF;}
</style>
<g id="Logo">
	<g>
		<path class="st0" d="M484.9,98.3l-17.6-0.2C404.2,97.4,351.4,85.4,306,61.6l-8.5-4.5l-8.5,4.5C243.8,85.4,191,97.4,127.8,98.1
			l-17.5,0.2c-0.9,15.3-2.5,49.5-1,75.2c1.9,34.7,7.2,68.7,15.6,101c11.6,44.3,29.1,86.4,52.1,125c28.1,47.3,64.7,89.9,108.8,126.8
			l11.5,9.6l0.3-0.2l0.3,0.2l11.5-9.6c44.1-36.8,80.7-79.5,108.8-126.8c23-38.7,40.5-80.7,52.1-125c8.1-31.2,13.4-65.2,15.6-101.1
			C487.5,147,485.8,113.4,484.9,98.3z M297.6,512.4C297.6,512.3,297.6,512.3,297.6,512.4C297.6,512.3,297.5,512.3,297.6,512.4
			c-193.6-161.5-170.2-380-169.6-396c59-0.7,116.7-10.8,169.5-38.6c52.8,27.8,110.5,37.9,169.5,38.6
			C467.7,132.4,491.1,350.9,297.6,512.4z"/>
		<polygon class="st0" points="328.3,167.2 180.5,167.2 297.6,434.1 352.4,309.4 369.6,309.4 297.6,473.1 156.2,151.5 439,151.5 
			432.1,167 328.3,167 		"/>
		<path class="st0" d="M225.7,185.5v51.1l14.1,32.2v-32.2h32.7V343l14.1,32.4v-190H225.7z M272.5,218.9L272.5,218.9l0,3.4h-32.7
			v-22.7h32.7V218.9z"/>
		<polygon class="st0" points="322.9,199.6 322.9,222.3 348.7,222.3 348.7,236.4 322.9,236.4 322.9,343 308.7,375.4 308.7,185.5 
			369.6,185.5 369.6,199.6 		"/>
	</g>
</g>
</svg>
